<?xml version="1.0" standalone="no"?><!DOCTYPE svg PUBLIC "-//W3C//DTD SVG 1.1//EN" "http://www.w3.org/Graphics/SVG/1.1/DTD/svg11.dtd"><svg t="1621497903751" class="icon" viewBox="0 0 1242 1024" version="1.1" xmlns="http://www.w3.org/2000/svg" p-id="2474" xmlns:xlink="http://www.w3.org/1999/xlink" width="242.578125" height="200"><defs><style type="text/css"></style></defs><path d="M285.398539 270.74461a407.131118 407.131118 0 0 0-62.418718 128.059046 20.537772 20.537772 0 0 0 14.094549 24.967487h5.235119a20.13507 20.13507 0 0 0 19.329667-14.899952 380.552826 380.552826 0 0 1 56.378196-115.575303 20.537772 20.537772 0 0 0-4.429715-28.189098 20.13507 20.13507 0 0 0-28.189098 5.63782zM358.287493 193.023239a20.13507 20.13507 0 0 0-2.81891 28.189098 20.940473 20.940473 0 0 0 15.705355 7.651327 20.537772 20.537772 0 0 0 12.886445-4.832417 379.344721 379.344721 0 0 1 308.469274-77.318669 19.329667 19.329667 0 0 0 23.356681-15.705355 19.732369 19.732369 0 0 0-15.705354-23.759383 420.017563 420.017563 0 0 0-341.893491 85.775399z" p-id="2475"></path><path d="M1239.800863 505.922229c-4.429715-52.351182-51.143078-96.648337-135.307671-128.461747a16.108056 16.108056 0 0 0-7.651327 0h-2.818909a30.202605 30.202605 0 0 0-8.054028 4.027014 22.95398 22.95398 0 0 0-4.429716 6.443222 5.63782 5.63782 0 0 1 0 2.416208 19.732369 19.732369 0 0 0 0 9.664834 469.549836 469.549836 0 0 1 13.289146 111.548289 442.971543 442.971543 0 0 1-7.248625 62.016016 19.732369 19.732369 0 0 1 0 4.832417 471.966044 471.966044 0 0 1-12.081042 57.5863v4.027014l-17.31616 8.054028-22.148577 10.067535-24.564786 9.664834-22.148577 8.456729-30.605307 9.664834-22.551278 7.248625-32.216112 8.859431-22.551279 6.040521-35.840425 8.054028-21.745876 5.235119-40.27014 7.248625-20.940473 3.624312-44.699856 6.443223-17.718861 2.81891-64.432225 6.845924c-20.940473 0-40.27014 3.221611-62.418717 4.027014H393.322515l-20.537772-2.013507-34.63232-2.81891-21.343175-2.81891-31.008008-4.429715-20.537771-3.624313-28.5918-5.63782-17.718862-4.832417-20.940473-5.637819c-4.027014-8.054028-7.651327-16.510758-11.275639-24.967487s-6.443222-14.094549-8.859431-21.343175-6.845924-20.940473-9.664833-31.81341-4.429715-13.691848-6.040521-20.537772a351.155623 351.155623 0 0 1-6.443223-35.840425c0-6.040521-2.416208-12.081042-3.221611-18.121563a500.960545 500.960545 0 0 1-3.221611-55.170092 337.463776 337.463776 0 0 1 0-34.632321 470.75794 470.75794 0 0 1 862.989106-226.318188 20.537772 20.537772 0 0 0 28.189098 5.63782 20.13507 20.13507 0 0 0 6.845924-27.786397A511.02808 511.02808 0 0 0 111.834234 464.443985C34.918266 510.351945-3.741068 561.897724 0.285946 614.248906c5.235118 59.197106 63.626822 107.118573 169.134589 139.737387a510.625379 510.625379 0 0 0 937.086164-86.1781c92.218621-49.129571 138.529283-105.105066 133.294164-161.885964zM40.556086 610.624594c-2.416208-30.605307 21.745876-64.432224 68.459238-97.051038a493.71192 493.71192 0 0 0 3.624313 54.767391c0 5.63782 0 11.275639 2.416208 16.510757 0 13.289146 4.027014 26.175591 6.845924 40.27014 0 6.040521 2.81891 12.483743 4.429716 18.524265 3.221611 12.483743 7.248625 24.967487 11.67834 37.45123 0 5.235118 3.221611 10.872938 5.235119 16.108056s0 4.832417 2.818909 7.248626C80.826226 677.875728 43.777697 645.659616 40.556086 610.624594z m579.487319 372.901499a469.952537 469.952537 0 0 1-395.050077-214.639848h8.45673l27.383695 5.235118 14.899952 2.81891 31.813411 4.832417h12.081042l45.102557 4.429715h206.183118c22.551279 0 45.102557-2.416208 68.056538-4.429715s40.27014-4.027014 62.821418-6.443222l23.356682 3.221611 40.27014-5.63782 24.967487-4.429715 34.632321-6.443223 24.967487-5.235118 33.021515-7.651327 23.356681-5.637819 32.216112-9.262133 21.343175-6.040521 33.424216-11.275639 16.510757-5.637819c16.108056-6.040521 31.813411-12.081042 46.713363-18.524265a474.784954 474.784954 0 0 1-436.52832 290.750413z m501.363246-370.887992v-7.651327c2.013507-11.275639 3.624313-22.95398 5.235118-34.229619v-12.886445a424.84998 424.84998 0 0 0 2.416209-45.505258 492.101114 492.101114 0 0 0-1.208104-54.36469c0-4.429715 0-9.262132-2.013508-14.094549s0-9.262132 0-13.691848c46.310661 22.95398 72.486253 50.337675 74.902461 80.540281s-26.175591 67.653836-79.332176 101.883455z" p-id="2476"></path></svg>